<svg xmlns="http://www.w3.org/2000/svg" viewBox="0 0 48 48" width="48" height="48">
  <rect width="48" height="48" rx="11" fill="#05070C"/>
  <path d="M13.5 13.5 9.5 4.5l10.5 5Z" fill="#3FE0BC"/>
  <path d="M34.5 13.5 38.5 4.5 28 9.5Z" fill="#3FE0BC"/>
  <g fill="none" stroke="#3FE0BC" stroke-width="2.6" stroke-linecap="round">
    <path d="M24 8.5a15.5 15.5 0 0 1 14.8 11M38.8 28.5A15.5 15.5 0 0 1 24 39.5 15.5 15.5 0 0 1 9.2 28.5M9.2 19.5A15.5 15.5 0 0 1 24 8.5" opacity="0.55"/>
    <path d="M5 24h38"/>
  </g>
  <g fill="#05070C">
    <ellipse cx="18" cy="24" rx="4" ry="6"/>
    <ellipse cx="30" cy="24" rx="4" ry="6"/>
  </g>
  <g fill="#3FE0BC">
    <ellipse cx="18" cy="24" rx="2" ry="4.4"/>
    <ellipse cx="30" cy="24" rx="2" ry="4.4"/>
  </g>
</svg>
